<svg width="38" height="38" viewBox="0 0 38 38" fill="none" xmlns="http://www.w3.org/2000/svg">
<path d="M28.9923 22.531C28.389 22.2608 27.6901 22.5334 27.4241 23.1319C27.3998 23.1847 24.9702 28.4833 18.9098 28.5546C18.8724 28.5546 18.8356 28.5558 18.7982 28.5558C13.0958 28.5558 10.6364 23.3468 10.5344 23.123C10.263 22.5293 9.56242 22.265 8.96392 22.534C8.36661 22.8042 8.1012 23.5066 8.37136 24.105C8.49782 24.3859 11.5396 30.9308 18.7934 30.9308C18.841 30.9308 18.8896 30.9296 18.9371 30.9296C26.5027 30.8406 29.4703 24.374 29.592 24.0991C29.8609 23.4994 29.5908 22.7976 28.9923 22.531L28.9923 22.531ZM19 0C8.50606 0 0 8.50606 0 19C0 29.4939 8.50606 38 19 38C29.4939 38 38 29.4939 38 19C38 8.50606 29.4939 0 19 0ZM19 35.625C9.83309 35.625 2.375 28.1669 2.375 19C2.375 9.83309 9.83309 2.375 19 2.375C28.1669 2.375 35.625 9.83309 35.625 19C35.625 28.1669 28.1669 35.625 19 35.625ZM13.0441 17.806C14.3527 17.806 15.4132 16.7449 15.4132 15.4375C15.4132 14.1301 14.3527 13.069 13.0441 13.069C11.7349 13.069 10.675 14.13 10.675 15.4375C10.675 16.745 11.7349 17.806 13.0441 17.806ZM24.9191 17.806C26.2277 17.806 27.2882 16.7449 27.2882 15.4375C27.2882 14.1301 26.2277 13.069 24.9191 13.069C23.6099 13.069 22.55 14.13 22.55 15.4375C22.55 16.745 23.6099 17.806 24.9191 17.806Z" fill="#8AC44B"/>
</svg>
