<svg width="20" height="20" viewBox="0 0 20 20" fill="none" xmlns="http://www.w3.org/2000/svg">
<path d="M10 0C8.02219 0 6.08879 0.586489 4.4443 1.6853C2.79981 2.78412 1.51809 4.3459 0.761209 6.17316C0.00433267 8.00043 -0.1937 10.0111 0.192152 11.9509C0.578004 13.8907 1.53041 15.6725 2.92894 17.0711C4.32746 18.4696 6.10929 19.422 8.0491 19.8078C9.98891 20.1937 11.9996 19.9957 13.8268 19.2388C15.6541 18.4819 17.2159 17.2002 18.3147 15.5557C19.4135 13.9112 20 11.9778 20 10C19.9969 7.34879 18.9423 4.80706 17.0676 2.93237C15.1929 1.05768 12.6512 0.00311358 10 0ZM10 18.8235C8.25487 18.8235 6.54893 18.306 5.09791 17.3365C3.64689 16.367 2.51596 14.9889 1.84813 13.3766C1.18029 11.7643 1.00556 9.99021 1.34602 8.27861C1.68647 6.56702 2.52683 4.99481 3.76083 3.76082C4.99482 2.52683 6.56702 1.68647 8.27862 1.34601C9.99021 1.00555 11.7643 1.18029 13.3766 1.84812C14.9889 2.51595 16.367 3.64689 17.3365 5.09791C18.306 6.54893 18.8235 8.25487 18.8235 10C18.8209 12.3393 17.8905 14.5821 16.2363 16.2363C14.5821 17.8905 12.3394 18.8209 10 18.8235ZM14.5098 13.1373C14.5098 13.2933 14.4478 13.4429 14.3375 13.5532C14.2272 13.6635 14.0776 13.7255 13.9216 13.7255H6.07843C5.92242 13.7255 5.77281 13.6635 5.66249 13.5532C5.55217 13.4429 5.4902 13.2933 5.4902 13.1373C5.4902 12.9812 5.55217 12.8316 5.66249 12.7213C5.77281 12.611 5.92242 12.549 6.07843 12.549H13.9216C14.0776 12.549 14.2272 12.611 14.3375 12.7213C14.4478 12.8316 14.5098 12.9812 14.5098 13.1373ZM5.4902 8.03921C5.4902 7.84531 5.5477 7.65576 5.65543 7.49454C5.76315 7.33331 5.91627 7.20765 6.09541 7.13345C6.27455 7.05925 6.47168 7.03983 6.66186 7.07766C6.85203 7.11549 7.02672 7.20886 7.16383 7.34597C7.30094 7.48308 7.39432 7.65777 7.43215 7.84795C7.46997 8.03813 7.45056 8.23525 7.37636 8.41439C7.30215 8.59354 7.17649 8.74665 7.01527 8.85438C6.85404 8.96211 6.66449 9.01961 6.47059 9.01961C6.21058 9.01961 5.96121 8.91632 5.77735 8.73246C5.59349 8.5486 5.4902 8.29923 5.4902 8.03921ZM14.5098 8.03921C14.5098 8.23312 14.4523 8.42267 14.3446 8.58389C14.2369 8.74512 14.0837 8.87077 13.9046 8.94498C13.7254 9.01918 13.5283 9.0386 13.3381 9.00077C13.148 8.96294 12.9733 8.86957 12.8362 8.73246C12.6991 8.59535 12.6057 8.42066 12.5679 8.23048C12.53 8.0403 12.5494 7.84318 12.6236 7.66403C12.6979 7.48489 12.8235 7.33177 12.9847 7.22405C13.146 7.11632 13.3355 7.05882 13.5294 7.05882C13.7894 7.05882 14.0388 7.16211 14.2227 7.34597C14.4065 7.52983 14.5098 7.7792 14.5098 8.03921Z" fill="#F8981D"/>
</svg>
