<svg width="22" height="26" viewBox="0 0 22 26" fill="white" xmlns="http://www.w3.org/2000/svg">
<path d="M8.45833 23.375H13.2917C13.2917 24.7041 12.2042 25.7916 10.875 25.7916C9.54583 25.7916 8.45833 24.7041 8.45833 23.375ZM21.75 20.9583V22.1666H0V20.9583L2.41667 18.5416V11.2916C2.41667 7.54579 4.83333 4.28329 8.45833 3.19579V2.83329C8.45833 1.50413 9.54583 0.416626 10.875 0.416626C12.2042 0.416626 13.2917 1.50413 13.2917 2.83329V3.19579C16.9167 4.28329 19.3333 7.54579 19.3333 11.2916V18.5416L21.75 20.9583ZM16.9167 11.2916C16.9167 7.90829 14.2583 5.24996 10.875 5.24996C7.49167 5.24996 4.83333 7.90829 4.83333 11.2916V19.75H16.9167V11.2916Z" fill="black"/>
</svg>
